<?xml version="1.0" encoding="UTF-8"?>
<svg xmlns="http://www.w3.org/2000/svg" width="1200" height="800" viewBox="0 0 1200 800">
  <style>
    .stroke{fill:none;stroke:#333;stroke-width:2;stroke-linejoin:round}
    .muted{fill:#666;font-family:Arial,Helvetica,sans-serif;font-size:14px}
    .title{fill:#111;font-family:Arial,Helvetica,sans-serif;font-weight:700;font-size:18px}
  </style>

  <!-- Header -->
  <rect x="20" y="20" width="1160" height="60" class="stroke" fill="#f3f6fb" />
  <text x="40" y="58" class="title">RealEstate — Logo</text>

  <!-- Search / filters -->
  <rect x="20" y="100" width="760" height="44" class="stroke" />
  <text x="36" y="130" class="muted">Search by city, street, or title</text>

  <rect x="800" y="100" width="220" height="44" class="stroke" />
  <text x="816" y="130" class="muted">Sort / Filters</text>

  <!-- Grid of cards -->
  <!-- Row 1 -->
  <rect x="20" y="170" width="360" height="220" class="stroke" />
  <rect x="400" y="170" width="360" height="220" class="stroke" />
  <rect x="780" y="170" width="360" height="220" class="stroke" />

  <!-- Row 2 -->
  <rect x="20" y="410" width="360" height="220" class="stroke" />
  <rect x="400" y="410" width="360" height="220" class="stroke" />
  <rect x="780" y="410" width="360" height="220" class="stroke" />

  <!-- Card details placeholders (example for first card) -->
  <rect x="36" y="188" width="328" height="120" fill="#e9eef8" stroke="#bbb" />
  <text x="48" y="320" class="muted">Charming Family Home</text>
  <text x="48" y="340" class="muted">123 Maple Street • $425,000</text>
  <rect x="260" y="310" width="80" height="28" class="stroke" fill="#fff" />
  <text x="268" y="330" class="muted">View</text>

  <!-- Footer / pagination -->
  <rect x="20" y="650" width="1160" height="100" class="stroke" fill="#fafafa" />
  <text x="40" y="690" class="muted">Pagination • Page 1 of 4</text>

  <!-- Notes -->
  <text x="40" y="740" class="muted">Wireframe: Listing page — search, filters, responsive grid of property cards</text>
</svg>